<svg width="520" height="210" viewBox="0 0 520 210" fill="none" xmlns="http://www.w3.org/2000/svg">
  <rect width="520" height="210" rx="24" fill="#11161D"/>
  <rect x="1" y="1" width="518" height="208" rx="23" stroke="#5F6360" stroke-width="2"/>
  <rect x="28" y="28" width="108" height="108" rx="20" fill="#171D16" stroke="#8E8A5D" stroke-width="2"/>
  <path d="M58 54h48c8 0 14 6 14 14v36c0 8-6 14-14 14H58V54Z" stroke="#E8E2CB" stroke-width="4"/>
  <path d="M120 54h-12c-10 0-18 8-18 18v46c0-10 8-18 18-18h12V54Z" fill="#8E8A5D" fill-opacity="0.35" stroke="#E8E2CB" stroke-width="4" stroke-linejoin="round"/>
  <path d="M68 72h30M68 84h34M68 96h28" stroke="#E8E2CB" stroke-width="3" stroke-linecap="round"/>
  <text x="160" y="74" fill="#F4F4ED" font-family="Georgia, serif" font-size="32" font-weight="700">观自在 · Guanzizai</text>
  <text x="160" y="104" fill="#B9B39C" font-family="Arial, sans-serif" font-size="16" letter-spacing="2">READING SYSTEM / KNOWLEDGE EXPERIENCE</text>
  <text x="160" y="142" fill="#D7D2C1" font-family="Arial, sans-serif" font-size="18">古籍阅读 · 检索引用 · 书房与问答工作流</text>
  <text x="160" y="171" fill="#A88C53" font-family="Arial, sans-serif" font-size="15" letter-spacing="1">NEXT.JS  ·  REACT  ·  TYPESCRIPT  ·  POSTGRESQL</text>
</svg>
